<svg xmlns="http://www.w3.org/2000/svg" viewBox="0 0 100 100">
  <defs>
    <radialGradient id="halo" cx="50%" cy="50%" r="50%">
      <stop offset="0%"   stop-color="#DBEAFE" stop-opacity="1"/>
      <stop offset="55%"  stop-color="#93C5FD" stop-opacity="0.5"/>
      <stop offset="100%" stop-color="#BFDBFE" stop-opacity="0"/>
    </radialGradient>
    <radialGradient id="inner" cx="42%" cy="36%" r="65%">
      <stop offset="0%"   stop-color="#EFF6FF"/>
      <stop offset="100%" stop-color="#BFDBFE" stop-opacity="0.8"/>
    </radialGradient>
    <filter id="glow" x="-40%" y="-40%" width="180%" height="180%">
      <feGaussianBlur in="SourceGraphic" stdDeviation="2.5" result="blur"/>
      <feMerge><feMergeNode in="blur"/><feMergeNode in="SourceGraphic"/></feMerge>
    </filter>
  </defs>
  <circle cx="50" cy="50" r="49" fill="url(#halo)"/>
  <circle cx="50" cy="50" r="33" fill="url(#inner)"/>
  <circle cx="50" cy="50" r="44" fill="none" stroke="#3B82F6" stroke-width="1.8" stroke-dasharray="4.5 3"/>
  <path d="M 34 72 L 34 50 Q 34 30 50 30 Q 66 30 66 50 L 66 72" fill="none" stroke="#93C5FD" stroke-width="1.4" stroke-linecap="round" opacity="0.7"/>
  <g fill="#3B82F6" filter="url(#glow)">
    <rect x="35.5" y="38"   width="4.4"  height="32"/>
    <rect x="60.1" y="38"   width="4.4"  height="32"/>
    <rect x="39.9" y="51.6" width="20.2" height="3.2"/>
    <rect x="32.5" y="38"   width="10.4" height="1.8"/>
    <rect x="32.5" y="68.2" width="10.4" height="1.8"/>
    <rect x="57.1" y="38"   width="10.4" height="1.8"/>
    <rect x="57.1" y="68.2" width="10.4" height="1.8"/>
  </g>
</svg>
